<svg xmlns="http://www.w3.org/2000/svg" viewBox="0 0 900 600" width="900" height="600"><defs><linearGradient id="wall" x1="0" y1="0" x2="0" y2="1"><stop offset="0" stop-color="#f2ece3" stop-opacity="1"/><stop offset="1" stop-color="#ddd3c6" stop-opacity="1"/></linearGradient><linearGradient id="floor" x1="0" y1="0" x2="0" y2="1"><stop offset="0" stop-color="#caa77f" stop-opacity="1"/><stop offset="1" stop-color="#9c7850" stop-opacity="1"/></linearGradient><linearGradient id="view" x1="0" y1="0" x2="0" y2="1"><stop offset="0" stop-color="#7cc0e4" stop-opacity="1"/><stop offset="0.58" stop-color="#bfe4f2" stop-opacity="1"/><stop offset="0.62" stop-color="#2f8fa8" stop-opacity="1"/><stop offset="1" stop-color="#1d6b85" stop-opacity="1"/></linearGradient><linearGradient id="beam" x1="0" y1="0" x2="0" y2="1"><stop offset="0" stop-color="#fff6e2" stop-opacity="0.5"/><stop offset="1" stop-color="#fff6e2" stop-opacity="0"/></linearGradient><filter id="grain" x="0" y="0" width="100%" height="100%"><feTurbulence type="fractalNoise" baseFrequency="0.85" numOctaves="3" stitchTiles="stitch"/><feColorMatrix type="saturate" values="0"/></filter><filter id="soft" x="-50%" y="-50%" width="200%" height="200%"><feGaussianBlur stdDeviation="16"/></filter><radialGradient id="vig" cx="0.5" cy="0.45" r="0.75"><stop offset="0.55" stop-color="#000000" stop-opacity="0"/><stop offset="1" stop-color="#000000" stop-opacity="0.3"/></radialGradient></defs><rect width="900" height="600" fill="url(#wall)"/><rect y="430" width="900" height="170" fill="url(#floor)"/><rect y="456" width="900" height="2" fill="#000000" opacity="0.05"/><rect y="490" width="900" height="2" fill="#000000" opacity="0.05"/><rect y="524" width="900" height="2" fill="#000000" opacity="0.05"/><rect y="558" width="900" height="2" fill="#000000" opacity="0.05"/><rect y="592" width="900" height="2" fill="#000000" opacity="0.05"/><rect x="490" y="64" width="360" height="308" rx="8" fill="#ffffff"/><rect x="500" y="74" width="340" height="288" fill="url(#view)"/><rect x="667" y="74" width="6" height="288" fill="#ffffff"/><rect x="500" y="229.4" width="340" height="6" fill="#ffffff"/><path d="M500,430 L840,430 L930,600 L370,600 Z" fill="url(#beam)"/><g><path d="M160.0,388.0 Q141.9,356.7 99.7,353.2 Q127.1,375.3 160.0,388.0 Z" fill="#3f6b4a" opacity="1"/><path d="M160.0,388.0 Q157.1,346.2 114.9,321.1 Q132.2,358.1 160.0,388.0 Z" fill="#3f6b4a" opacity="1"/><path d="M160.0,388.0 Q175.7,349.2 148.8,308.3 Q148.2,349.0 160.0,388.0 Z" fill="#3f6b4a" opacity="1"/><path d="M160.0,388.0 Q192.6,358.7 186.1,307.7 Q166.8,345.8 160.0,388.0 Z" fill="#3f6b4a" opacity="1"/><path d="M160.0,388.0 Q194.1,378.2 207.4,338.9 Q179.9,359.7 160.0,388.0 Z" fill="#3f6b4a" opacity="1"/><path d="M160.0,388.0 Q198.8,394.9 231.2,362.1 Q193.6,369.5 160.0,388.0 Z" fill="#3f6b4a" opacity="1"/><path d="M136,388 L184,388 L176,442 L144,442 Z" fill="#c2765a"/></g><ellipse cx="410" cy="536" rx="300" ry="58" fill="#e2d6c4" opacity="0.75"/><g><rect x="212" y="404" width="330" height="86" rx="16" fill="#b9b0a2"/><rect x="228" y="440" width="298" height="72" rx="14" fill="#cdc4b6"/><rect x="252" y="422" width="120" height="52" rx="10" fill="#d9d1c4"/><rect x="386" y="422" width="120" height="52" rx="10" fill="#d9d1c4"/><rect x="240" y="508" width="14" height="24" rx="4" fill="#8a6a49"/><rect x="500" y="508" width="14" height="24" rx="4" fill="#8a6a49"/></g><g><rect x="596" y="492" width="180" height="12" rx="6" fill="#a3784f"/><rect x="612" y="504" width="10" height="40" rx="4" fill="#8a6440"/><rect x="750" y="504" width="10" height="40" rx="4" fill="#8a6440"/></g><rect x="196" y="150" width="130" height="160" rx="4" fill="#ffffff"/><rect x="208" y="162" width="106" height="136" fill="#d6c3a8"/><circle cx="261" cy="216" r="30" fill="#c98a5e"/><rect width="900" height="600" filter="url(#grain)" opacity="0.07" style="mix-blend-mode:overlay"/><rect width="900" height="600" fill="url(#vig)"/></svg>