<svg xmlns="http://www.w3.org/2000/svg" viewBox="0 0 900 600" width="900" height="600"><defs><linearGradient id="sky" x1="0" y1="0" x2="0" y2="1"><stop offset="0" stop-color="#213a63" stop-opacity="1"/><stop offset="0.42" stop-color="#8a5c86" stop-opacity="1"/><stop offset="0.72" stop-color="#e8825e" stop-opacity="1"/><stop offset="1" stop-color="#ffc98a" stop-opacity="1"/></linearGradient><linearGradient id="sea" x1="0" y1="0" x2="0" y2="1"><stop offset="0" stop-color="#c9764f" stop-opacity="1"/><stop offset="0.18" stop-color="#5c6f8f" stop-opacity="1"/><stop offset="1" stop-color="#1e2f4d" stop-opacity="1"/></linearGradient><radialGradient id="glow" cx="0.5" cy="0.5" r="0.5"><stop offset="0" stop-color="#fff3cf" stop-opacity="0.95"/><stop offset="0.45" stop-color="#ffb46b" stop-opacity="0.4"/><stop offset="1" stop-color="#ff9a5a" stop-opacity="0"/></radialGradient><filter id="grain" x="0" y="0" width="100%" height="100%"><feTurbulence type="fractalNoise" baseFrequency="0.85" numOctaves="3" stitchTiles="stitch"/><feColorMatrix type="saturate" values="0"/></filter><filter id="soft" x="-50%" y="-50%" width="200%" height="200%"><feGaussianBlur stdDeviation="16"/></filter><radialGradient id="vig" cx="0.5" cy="0.45" r="0.75"><stop offset="0.55" stop-color="#000000" stop-opacity="0"/><stop offset="1" stop-color="#000000" stop-opacity="0.3"/></radialGradient></defs><rect width="900" height="600" fill="url(#sky)"/><circle cx="470" cy="324" r="150" fill="url(#glow)"/><circle cx="470" cy="312" r="40" fill="#fff6dc"/><rect y="330" width="900" height="270" fill="url(#sea)"/><rect x="462.0" y="334.0" width="22.6" height="1.4" rx="0.7" fill="#ffd9a1" opacity="0.22"/><rect x="443.5" y="352.9" width="47.0" height="1.5" rx="0.8" fill="#ffd9a1" opacity="0.26"/><rect x="456.7" y="365.8" width="54.2" height="1.6" rx="0.8" fill="#ffd9a1" opacity="0.14"/><rect x="449.0" y="377.1" width="37.3" height="1.8" rx="0.9" fill="#ffd9a1" opacity="0.28"/><rect x="452.0" y="387.4" width="61.2" height="1.9" rx="0.9" fill="#ffd9a1" opacity="0.20"/><rect x="432.7" y="397.2" width="50.3" height="2.0" rx="1.0" fill="#ffd9a1" opacity="0.19"/><rect x="436.6" y="406.4" width="50.0" height="2.1" rx="1.1" fill="#ffd9a1" opacity="0.27"/><rect x="414.4" y="415.3" width="74.8" height="2.3" rx="1.1" fill="#ffd9a1" opacity="0.25"/><rect x="442.4" y="423.9" width="61.3" height="2.4" rx="1.2" fill="#ffd9a1" opacity="0.10"/><rect x="438.5" y="432.2" width="104.4" height="2.5" rx="1.3" fill="#ffd9a1" opacity="0.19"/><rect x="431.1" y="440.2" width="144.8" height="2.6" rx="1.3" fill="#ffd9a1" opacity="0.24"/><rect x="415.2" y="448.1" width="79.7" height="2.8" rx="1.4" fill="#ffd9a1" opacity="0.12"/><rect x="362.9" y="455.8" width="138.3" height="2.9" rx="1.4" fill="#ffd9a1" opacity="0.24"/><rect x="403.9" y="463.3" width="97.3" height="3.0" rx="1.5" fill="#ffd9a1" opacity="0.10"/><rect x="354.5" y="470.7" width="214.9" height="3.1" rx="1.6" fill="#ffd9a1" opacity="0.13"/><rect x="351.8" y="478.0" width="200.3" height="3.3" rx="1.6" fill="#ffd9a1" opacity="0.27"/><rect x="404.0" y="485.1" width="128.4" height="3.4" rx="1.7" fill="#ffd9a1" opacity="0.31"/><rect x="393.0" y="492.2" width="123.8" height="3.5" rx="1.8" fill="#ffd9a1" opacity="0.24"/><rect x="330.0" y="499.1" width="261.7" height="3.6" rx="1.8" fill="#ffd9a1" opacity="0.18"/><rect x="298.7" y="505.9" width="241.6" height="3.7" rx="1.9" fill="#ffd9a1" opacity="0.29"/><rect x="365.3" y="512.7" width="228.0" height="3.9" rx="1.9" fill="#ffd9a1" opacity="0.20"/><rect x="307.2" y="519.3" width="284.0" height="4.0" rx="2.0" fill="#ffd9a1" opacity="0.14"/><rect x="377.7" y="525.9" width="156.5" height="4.1" rx="2.1" fill="#ffd9a1" opacity="0.25"/><rect x="281.8" y="532.4" width="259.9" height="4.2" rx="2.1" fill="#ffd9a1" opacity="0.12"/><rect x="260.0" y="538.8" width="297.2" height="4.4" rx="2.2" fill="#ffd9a1" opacity="0.26"/><rect x="343.2" y="545.2" width="282.5" height="4.5" rx="2.2" fill="#ffd9a1" opacity="0.15"/><rect x="359.0" y="551.5" width="281.3" height="4.6" rx="2.3" fill="#ffd9a1" opacity="0.26"/><rect x="240.5" y="557.8" width="342.5" height="4.7" rx="2.4" fill="#ffd9a1" opacity="0.30"/><rect x="318.5" y="564.0" width="353.7" height="4.9" rx="2.4" fill="#ffd9a1" opacity="0.24"/><rect x="272.0" y="570.1" width="296.6" height="5.0" rx="2.5" fill="#ffd9a1" opacity="0.17"/><rect x="270.9" y="576.2" width="291.7" height="5.1" rx="2.6" fill="#ffd9a1" opacity="0.22"/><rect x="332.5" y="582.2" width="420.1" height="5.2" rx="2.6" fill="#ffd9a1" opacity="0.22"/><rect x="322.5" y="588.2" width="216.6" height="5.4" rx="2.7" fill="#ffd9a1" opacity="0.25"/><rect x="137.8" y="594.1" width="453.0" height="5.5" rx="2.7" fill="#ffd9a1" opacity="0.18"/><path d="M0,600 L0.0,349.3 L18.8,352.9 L37.5,358.2 L56.3,364.9 L75.0,371.7 L93.8,377.0 L112.5,379.4 L131.3,377.9 L150.0,372.5 L168.8,364.4 L187.5,355.2 L206.3,346.6 L225.0,340.0 L243.7,336.0 L262.5,334.2 L281.3,333.4 L300.0,332.6 L318.8,330.8 L337.5,327.6 L356.3,323.7 L375.0,320.2 L393.8,318.2 L412.5,318.5 L431.3,321.2 L450.0,325.4 L468.8,329.7 L487.5,332.5 L506.3,332.4 L525.0,329.2 L543.8,323.3 L562.5,316.3 L581.3,309.7 L600.0,305.3 L618.8,303.7 L637.5,305.1 L656.3,308.5 L675.0,312.8 L693.8,316.6 L712.5,319.4 L731.3,321.4 L750.0,323.4 L768.8,326.5 L787.5,331.7 L806.3,339.2 L825.0,348.5 L843.8,358.2 L862.5,366.6 L881.3,372.1 L900.0,373.8 L900,600 Z" fill="#22293f" opacity="0.55"/><path d="M0,600 L0,436 C130,404 236,446 322,506 L360,600 Z" fill="#161d2e"/><g opacity="1" fill="#111826"><rect x="94.0" y="426.7" width="4.0" height="14.8"/><polygon points="96.0,366.0 79.2,403.0 112.8,403.0"/><polygon points="96.0,384.5 74.0,419.3 118.0,419.3"/><polygon points="96.0,403.0 68.8,436.3 123.2,436.3"/></g><g opacity="1" fill="#111826"><rect x="148.5" y="442.3" width="3.0" height="10.8"/><polygon points="150.0,398.0 137.4,425.0 162.6,425.0"/><polygon points="150.0,411.5 133.5,436.9 166.5,436.9"/><polygon points="150.0,425.0 129.6,449.3 170.4,449.3"/></g><path d="M732.5,160.1 q5.6,-6.2 11.3,0 q5.6,-6.2 11.3,0" fill="none" stroke="#2b3440" stroke-opacity="0.35" stroke-width="1.6" stroke-linecap="round"/><path d="M696.7,213.8 q4.0,-4.4 8.0,0 q4.0,-4.4 8.0,0" fill="none" stroke="#2b3440" stroke-opacity="0.35" stroke-width="1.6" stroke-linecap="round"/><path d="M666.6,192.3 q3.5,-3.9 7.1,0 q3.5,-3.9 7.1,0" fill="none" stroke="#2b3440" stroke-opacity="0.35" stroke-width="1.6" stroke-linecap="round"/><path d="M684.9,158.8 q4.0,-4.4 8.0,0 q4.0,-4.4 8.0,0" fill="none" stroke="#2b3440" stroke-opacity="0.35" stroke-width="1.6" stroke-linecap="round"/><path d="M713.1,187.8 q4.6,-5.0 9.1,0 q4.6,-5.0 9.1,0" fill="none" stroke="#2b3440" stroke-opacity="0.35" stroke-width="1.6" stroke-linecap="round"/><rect width="900" height="600" filter="url(#grain)" opacity="0.07" style="mix-blend-mode:overlay"/><rect width="900" height="600" fill="url(#vig)"/></svg>